<svg width="30" height="24" viewBox="0 0 30 24" fill="none" xmlns="http://www.w3.org/2000/svg">
<path fill-rule="evenodd" clip-rule="evenodd" d="M0 1.72157C0 0.770772 0.770771 0 1.72157 0H28.2784C29.2292 0 30 0.770772 30 1.72157C30 2.67236 29.2292 3.44313 28.2784 3.44313H1.72157C0.770771 3.44313 0 2.67236 0 1.72157ZM5.99996 12C5.99996 11.0492 6.77073 10.2784 7.72152 10.2784H28.2784C29.2292 10.2784 30 11.0492 30 12C30 12.9508 29.2292 13.7216 28.2784 13.7216H7.72152C6.77073 13.7216 5.99996 12.9508 5.99996 12ZM1.72157 20.5568C0.770771 20.5568 0 21.3276 0 22.2784C0 23.2292 0.770771 24 1.72157 24H28.2784C29.2292 24 30 23.2292 30 22.2784C30 21.3276 29.2292 20.5568 28.2784 20.5568H1.72157Z" fill="white"/>
</svg>
